<svg width="100" height="100" viewBox="0 0 100 100" fill="none" xmlns="http://www.w3.org/2000/svg">
<rect width="100" height="100" rx="50" fill="#23E0B3" fill-opacity="0.5"/>
<g clip-path="url(#clip0_257_34)">
<path d="M79 62H74V30C74 27.7975 72.2025 26 70 26H42V38H62V79C62 80.6562 63.3438 82 65 82H71C72.6562 82 74 80.6562 74 79V74H79C80.6562 74 82 72.6562 82 71V65C82 63.35 80.6625 62 79 62ZM38 21C38 19.3438 36.65 18 35 18H29C27.3438 18 26 19.3438 26 21V26H21C19.3438 26 18 27.3438 18 29V35C18 36.65 19.3438 38 21 38H26V70C26 72.2025 27.7975 74 30 74H58V62H38V21Z" fill="#3A3636"/>
</g>
<defs>
<clipPath id="clip0_257_34">
<rect width="64" height="64" fill="white" transform="translate(18 18)"/>
</clipPath>
</defs>
</svg>
