<svg width="100" height="100" viewBox="0 0 100 100" fill="none" xmlns="http://www.w3.org/2000/svg">
<rect width="100" height="100" rx="50" fill="#23E0B3" fill-opacity="0.5"/>
<g clip-path="url(#clip0_257_31)">
<path d="M80.4353 52.0024L50.2323 21.8458C48.9883 20.6634 47.5238 19.7374 45.9223 19.1205C44.3646 18.4279 42.6864 18.0472 40.9824 17.9999H23.4042C22.695 17.9941 21.992 18.1334 21.3386 18.4093C20.6852 18.6853 20.0952 19.0921 19.6048 19.6046C19.0923 20.0949 18.6855 20.6849 18.4096 21.3383C18.1336 21.9918 17.9943 22.6947 18.0002 23.404V40.9755C18.0473 42.6795 18.428 44.3578 19.1208 45.9154C19.7307 47.5086 20.6579 48.9614 21.846 50.1856L52.0491 80.4351C52.5419 80.9417 53.1332 81.3419 53.7867 81.611C54.4402 81.8802 55.1419 82.0125 55.8485 81.9999C56.561 82.0052 57.2675 81.8696 57.9275 81.6011C58.5875 81.3325 59.1879 80.9363 59.6943 80.4351L80.4353 59.6543C80.9419 59.1615 81.3421 58.5701 81.6113 57.9167C81.8804 57.2632 82.0128 56.5615 82.0002 55.8549C82.0063 55.1413 81.8712 54.4335 81.6026 53.7723C81.334 53.1112 80.9373 52.5096 80.4353 52.0024ZM31.5203 36.9241C30.0876 36.9223 28.714 36.3524 27.701 35.3393C26.6879 34.3263 26.118 32.9527 26.1162 31.52C26.118 30.0873 26.6879 28.7138 27.701 27.7007C28.714 26.6876 30.0876 26.1177 31.5203 26.116C32.953 26.1177 34.3265 26.6876 35.3396 27.7007C36.3527 28.7138 36.9226 30.0873 36.9243 31.52C36.9226 32.9527 36.3527 34.3263 35.3396 35.3393C34.3265 36.3524 32.953 36.9223 31.5203 36.9241ZM51.6048 59.7405C51.0293 60.3147 50.2495 60.6371 49.4366 60.6371C48.6236 60.6371 47.8438 60.3147 47.2683 59.7405L36.5265 48.9987C36.2185 48.7194 35.9704 48.3804 35.7973 48.0024C35.6243 47.6243 35.5298 47.2151 35.5196 46.7994C35.5095 46.3838 35.5839 45.9704 35.7383 45.5843C35.8927 45.1983 36.1239 44.8476 36.4179 44.5536C36.7119 44.2596 37.0626 44.0284 37.4486 43.874C37.8347 43.7196 38.2481 43.6452 38.6637 43.6553C39.0794 43.6655 39.4887 43.76 39.8667 43.933C40.2448 44.1061 40.5837 44.3542 40.863 44.6622L51.6048 55.404C51.8899 55.6885 52.1161 56.0265 52.2704 56.3986C52.4247 56.7706 52.5042 57.1695 52.5042 57.5723C52.5042 57.975 52.4247 58.3739 52.2704 58.7459C52.1161 59.118 51.8899 59.456 51.6048 59.7405ZM67.5186 58.2353C67.2341 58.5204 66.8961 58.7466 66.5241 58.9009C66.152 59.0552 65.7532 59.1347 65.3504 59.1347C64.9476 59.1347 64.5487 59.0552 64.1767 58.9009C63.8046 58.7466 63.4666 58.5204 63.1821 58.2353L45.2791 40.3323C44.7496 39.7484 44.465 38.9831 44.4842 38.1951C44.5035 37.407 44.8251 36.6566 45.3825 36.0992C45.9399 35.5418 46.6903 35.2202 47.4784 35.2009C48.2664 35.1817 49.0317 35.4663 49.6156 35.9958L67.5186 53.8988C68.0897 54.4759 68.4085 55.256 68.4047 56.0679C68.401 56.8797 68.0751 57.6569 67.4987 58.2287L67.5186 58.2353Z" fill="#3A3636"/>
</g>
<defs>
<clipPath id="clip0_257_31">
<rect width="64" height="64" fill="white" transform="translate(18 18)"/>
</clipPath>
</defs>
</svg>
