<svg width="100" height="100" viewBox="0 0 100 100" fill="none" xmlns="http://www.w3.org/2000/svg">
<rect width="100" height="100" rx="50" fill="#23E0B3" fill-opacity="0.5"/>
<path d="M73.9649 28.084C73.882 27.5985 73.7046 27.134 73.4427 26.717L68.9341 19.6395C68.614 19.137 68.1723 18.7234 67.65 18.4368C67.1277 18.1502 66.5415 18 65.9457 18H56.877L63.0187 28.084H73.9649Z" fill="#3A3636"/>
<path d="M43.6718 18H36.2538C35.658 18 35.0718 18.1502 34.5494 18.4367C34.0271 18.7233 33.5854 19.137 33.2654 19.6395L28.7568 26.717C28.4948 27.134 28.3173 27.5985 28.2344 28.084H38.9892L43.6718 18Z" fill="#3A3636"/>
<path d="M52.2837 28.084C52.6411 28.084 52.9838 28.2259 53.2365 28.4787C53.4893 28.7314 53.6312 29.0741 53.6312 29.4315C53.6312 29.7889 53.4893 30.1317 53.2365 30.3844C52.9838 30.6371 52.6411 30.7791 52.2837 30.7791H41.7715L49.5087 53.2121C49.62 53.5345 49.829 53.8142 50.1067 54.0122C50.3843 54.2103 50.7169 54.3168 51.058 54.3169C51.399 54.317 51.7316 54.2107 52.0095 54.0129C52.2873 53.8151 52.4965 53.5355 52.6079 53.2132L60.7776 29.5805L53.7244 18H46.6436L41.9608 28.084H52.2837Z" fill="#3A3636"/>
<path d="M73.1981 31.1249C73.2834 31.0142 73.3623 30.8987 73.4344 30.7791H63.2067L55.7324 51.3835L73.1981 31.1249Z" fill="#3A3636"/>
<path d="M28.7637 30.7791C28.836 30.8986 28.9149 31.014 29 31.1249L46.3651 51.3522L38.9025 30.7791H28.7637Z" fill="#3A3636"/>
<path d="M34.0143 58.4918H27.7135C27.4476 58.4918 27.1926 58.5975 27.0046 58.7855C26.8166 58.9735 26.7109 59.2285 26.7109 59.4944V80.9974C26.7109 81.2633 26.8166 81.5184 27.0046 81.7064C27.1926 81.8944 27.4476 82 27.7135 82H34.0143C34.3012 82 34.5854 81.9435 34.8505 81.8337C35.1156 81.7239 35.3564 81.5629 35.5593 81.36C35.7622 81.1571 35.9232 80.9162 36.033 80.6511C36.1428 80.386 36.1993 80.1019 36.1993 79.8149V60.6769C36.1993 60.0974 35.9691 59.5417 35.5593 59.1319C35.1495 58.7221 34.5938 58.4918 34.0143 58.4918Z" fill="#3A3636"/>
<path d="M73.8348 60.9532C73.4913 60.4293 73.0225 59.9993 72.471 59.702C71.9195 59.4048 71.3026 59.2497 70.6761 59.2508H68.2073C67.1247 59.2488 66.0659 59.5692 65.1661 60.1713C64.2663 60.7734 63.5661 61.6298 63.155 62.6314C62.9276 63.1753 62.6128 63.6783 62.223 64.1206C61.512 65.27 60.5307 66.2281 59.3644 66.9112C58.1982 67.5943 56.8826 67.9817 55.5322 68.0396H48.2155C47.8358 68.0304 47.4747 67.873 47.2094 67.6012C46.9441 67.3293 46.7956 66.9645 46.7956 66.5847C46.7956 66.2048 46.9441 65.84 47.2094 65.5682C47.4747 65.2963 47.8358 65.139 48.2155 65.1297H55.4946C56.6074 65.0971 57.6749 64.6822 58.5177 63.9549C58.4219 62.6724 57.8435 61.4739 56.8991 60.6009C55.9547 59.7279 54.7146 59.2454 53.4285 59.2504H48.0613C47.0649 59.2476 46.0779 59.442 45.1571 59.8226C44.2363 60.2031 43.3999 60.7622 42.6963 61.4677L42.5605 61.6024C41.6164 62.5469 40.4169 63.1947 39.1094 63.4661V78.063H58.4821C61.407 78.065 64.2682 77.2084 66.7108 75.5995C69.1535 73.9906 71.0702 71.7002 72.2232 69.0121L74.1508 64.5251C74.3989 63.9503 74.4999 63.3228 74.4448 62.6992C74.3896 62.0756 74.18 61.4755 73.8348 60.9532Z" fill="#3A3636"/>
</svg>
