<svg width="25" height="25" viewBox="0 0 25 25" fill="none" xmlns="http://www.w3.org/2000/svg">
<g clip-path="url(#clip0_261_144)">
<path fill-rule="evenodd" clip-rule="evenodd" d="M13.397 1.93577C19.1983 2.82777 21.8738 5.58652 22.6125 11.4295C22.681 11.9693 22.48 12.7813 23.25 12.7963C24.0548 12.8118 23.8608 12.0115 23.8675 11.4713C23.9358 5.96802 19.1375 0.866525 13.5648 0.678275C13.1443 0.738775 12.2743 0.388275 12.22 1.33077C12.184 1.96602 12.9165 1.86177 13.397 1.93577Z" fill="#3A3636"/>
<path fill-rule="evenodd" clip-rule="evenodd" d="M22.3506 17.7737C20.4036 16.4002 17.9554 13.7717 16.0476 16.6995C15.4109 17.6635 14.5196 17.7055 13.5876 17.2827C11.0184 16.1177 9.03464 14.323 7.87239 11.7115C6.50189 8.46771 9.85714 9.07696 9.79489 6.81546C9.72814 5.58446 6.73889 1.46996 5.55839 1.03571C5.06989 0.855964 4.58339 0.867714 4.08639 1.03471C1.31839 1.96546 0.17189 4.24196 1.26989 6.93746C4.54564 14.9795 10.3101 20.578 18.2456 23.995C18.6981 24.1895 19.2006 24.2672 19.4551 24.3372C21.2619 24.3555 23.3781 22.6147 23.9894 20.8872C24.5779 19.2252 23.3344 18.5657 22.3506 17.7737Z" fill="#3A3636"/>
<path fill-rule="evenodd" clip-rule="evenodd" d="M14.5377 3.53332C13.9797 3.46607 13.2429 3.20307 13.1127 3.97757C12.9764 4.79032 13.7974 4.70782 14.3252 4.82582C17.9082 5.62657 19.1557 6.93082 19.7457 10.4848C19.8319 11.0031 19.6607 11.8096 20.5412 11.6758C21.1937 11.5763 20.9582 10.8851 21.0127 10.4813C21.0417 7.06907 18.1177 3.96332 14.5377 3.53332Z" fill="#3A3636"/>
<path fill-rule="evenodd" clip-rule="evenodd" d="M14.8769 6.30981C14.5044 6.31906 14.1389 6.35931 14.0019 6.75731C13.7964 7.35231 14.2289 7.49406 14.6691 7.56481C16.1389 7.80081 16.9124 8.66756 17.0594 10.1333C17.0991 10.5311 17.3516 10.8536 17.7359 10.8081C18.2684 10.7446 18.3166 10.2706 18.3001 9.82031C18.3264 8.17356 16.4651 6.27031 14.8769 6.30981Z" fill="#3A3636"/>
</g>
<defs>
<clipPath id="clip0_261_144">
<rect width="25" height="25" fill="white"/>
</clipPath>
</defs>
</svg>
