<svg width="81" height="68" viewBox="0 0 81 68" fill="none" xmlns="http://www.w3.org/2000/svg">
<path d="M53.8672 38.8984C53.8672 45.3307 52.6693 50.7083 50.2734 55.0312C47.8776 59.3281 44.401 62.5703 39.8438 64.7578C35.2865 66.9193 29.7917 68 23.3594 68H7.5V10.8906H25.0781C30.9896 10.8906 36.0938 11.9583 40.3906 14.0938C44.6875 16.2031 48.0078 19.3411 50.3516 23.5078C52.6953 27.6484 53.8672 32.7786 53.8672 38.8984ZM44.1016 39.1719C44.1016 34.4844 43.3594 30.6302 41.875 27.6094C40.4167 24.5885 38.2552 22.349 35.3906 20.8906C32.5521 19.4062 29.0495 18.6641 24.8828 18.6641H16.875V60.1484H23.5156C30.4167 60.1484 35.5729 58.3906 38.9844 54.875C42.3958 51.3594 44.1016 46.125 44.1016 39.1719Z" fill="#23E0B3"/>
<path d="M27.1328 28.8984C27.1328 35.3307 28.3307 40.7083 30.7266 45.0312C33.1224 49.3281 36.599 52.5703 41.1562 54.7578C45.7135 56.9193 51.2083 58 57.6406 58H73.5V0.890625H55.9219C50.0104 0.890625 44.9062 1.95833 40.6094 4.09375C36.3125 6.20312 32.9922 9.34115 30.6484 13.5078C28.3047 17.6484 27.1328 22.7786 27.1328 28.8984ZM36.8984 29.1719C36.8984 24.4844 37.6406 20.6302 39.125 17.6094C40.5833 14.5885 42.7448 12.349 45.6094 10.8906C48.4479 9.40625 51.9505 8.66406 56.1172 8.66406H64.125V50.1484H57.4844C50.5833 50.1484 45.4271 48.3906 42.0156 44.875C38.6042 41.3594 36.8984 36.125 36.8984 29.1719Z" fill="#23E0B3"/>
</svg>
